<svg xmlns="http://www.w3.org/2000/svg" width="48" height="48"><g fill-rule="evenodd" transform="translate(0 -1004.362)"><circle cx="24" cy="1028.362" r="24" fill="#239fdb"/><path fill="#0b5ecd" style="line-height:normal;text-indent:0;text-align:start;text-decoration-line:none;text-decoration-style:solid;text-decoration-color:#000;text-transform:none;block-progression:tb;isolation:auto;mix-blend-mode:normal" d="M27 11v8.955l-4-4h-1l-1-1h-4v1h-1.9l-3-3H8V37l10.277 10.277A24 24 0 0 0 24 48a24 24 0 0 0 24-24 24 24 0 0 0-.117-2.162L40 13.955h-4.045L33 11h-6z" color="#000" font-family="sans-serif" font-weight="400" transform="translate(0 1004.362)"/><path fill="#fff" d="M27 1015.362v8.955h-4v-4h-2v-1h-4v1h-2v3h-2.9v-6H8v24.045h1v-9.545h.95v2H13v7.545h1v-12.045h2.412v-2h2.276v2H21v-1h-1.313v-2h-4.275v2H13v4.5h-2.05v-2H9v-12.5h2.1v6H16v-3h2v-1h2v1h2v4h6v-8.955h4v9.955h4v-7h3v11h-2.5v-2H32v1h3.5v2H39v10.045h1v-23.045h-5v7h-2v-9.955zm-1.977 10.953h-.05a.522.522 0 0 0-.313.131l-6.498 6a.5.5 0 0 0 .338.871h.5v7.498a.5.5 0 0 0 .5.5h11a.5.5 0 0 0 .5-.5v-7.498h.5a.5.5 0 0 0 .34-.869l-.84-.775v-2.85a.5.5 0 1 0-1 0v1.926l-4.66-4.3a.501.501 0 0 0-.317-.134zM25 1027.5l5.22 4.818H19.78zm-5 6.033h10v6.783h-3v-3.5a.5.5 0 0 0-.5-.5h-3a.5.5 0 0 0-.5.5v3.5h-3zm4 3.783h2v3h-2z" color="#000" font-family="sans-serif" font-weight="400" overflow="visible" style="line-height:normal;text-indent:0;text-align:start;text-decoration-line:none;text-decoration-style:solid;text-decoration-color:#000;text-transform:none;block-progression:tb;isolation:auto;mix-blend-mode:normal"/></g></svg>