<svg xmlns="http://www.w3.org/2000/svg" width="48" height="48"><path style="line-height:normal;text-indent:0;text-align:start;text-decoration-line:none;text-decoration-style:solid;text-decoration-color:#000;text-transform:none;block-progression:tb;isolation:auto;mix-blend-mode:normal" fill-rule="evenodd" d="M24 0C10.751 0 0 10.751 0 24s10.751 24 24 24 24-10.751 24-24S37.249 0 24 0zm0 1c12.708 0 23 10.292 23 23 0 12.709-10.292 23-23 23S1 36.709 1 24C1 11.292 11.292 1 24 1zm3 10v8.955h-4v-4h-2v-1h-4v1h-2v3h-2.9v-6H8v24h1v-9.5h.95v2H13V37h1V24.955h2.412v-2h2.276v2H21v-1h-1.313v-2h-4.275v2H13v4.5h-2.05v-2H9v-12.5h2.1v6H16v-3h2v-1h2v1h2v4h6V12h4v9.955h4v-7h3v11h-2.5v-2H32v1h3.5v2H39v10h1v-23h-5v7h-2V11h-6zm-2.027 10.953a.5.5 0 0 0-.313.131l-6.498 6a.5.5 0 0 0 .338.871h.5v7.498a.5.5 0 0 0 .5.5h11a.5.5 0 0 0 .5-.5v-7.498h.5a.5.5 0 0 0 .34-.87l-.84-.774v-2.85a.5.5 0 0 0-.508-.506.5.5 0 0 0-.492.506v1.926l-4.66-4.301a.5.5 0 0 0-.317-.133.5.5 0 0 0-.05 0zM25 23.137l5.22 4.818H19.78L25 23.137zm-5 6.033h10v6.783h-3v-3.5a.5.5 0 0 0-.5-.5h-3a.5.5 0 0 0-.5.5v3.5h-3V29.17zm4 3.783h2v3h-2v-3z" color="#000" font-family="sans-serif" font-weight="400" overflow="visible"/></svg>